<svg width="24" height="24" viewBox="0 0 24 24" fill="none" xmlns="http://www.w3.org/2000/svg">
<path fill-rule="evenodd" clip-rule="evenodd" d="M6 0.75C6 0.335786 5.66421 0 5.25 0C4.83579 0 4.5 0.335786 4.5 0.75V1.5H3C1.34315 1.5 0 2.84315 0 4.5V21C0 22.6569 1.34315 24 3 24H21C22.6569 24 24 22.6569 24 21V4.5C24 2.84315 22.6569 1.5 21 1.5H19.5V0.75C19.5 0.335786 19.1642 0 18.75 0C18.3358 0 18 0.335786 18 0.75V1.5H6V0.75ZM1.5 21V6H22.5V21C22.5 21.8284 21.8284 22.5 21 22.5H3C2.17157 22.5 1.5 21.8284 1.5 21ZM12 11.2391C14.4966 8.673 20.738 13.1637 12 18.9375C3.26197 13.1637 9.50342 8.673 12 11.2391Z" fill="white"/>
</svg>
